<mxfile host="Electron" agent="Mozilla/5.0 (Windows NT 10.0; Win64; x64) AppleWebKit/537.36 (KHTML, like Gecko) draw.io/24.7.8 Chrome/128.0.6613.36 Electron/32.0.1 Safari/537.36" version="24.7.8">
  <diagram id="C5RBs43oDa-KdzZeNtuy" name="Page-1">
    <mxGraphModel dx="882" dy="719" grid="1" gridSize="10" guides="1" tooltips="1" connect="1" arrows="1" fold="1" page="1" pageScale="1" pageWidth="827" pageHeight="1169" math="0" shadow="0">
      <root>
        <mxCell id="WIyWlLk6GJQsqaUBKTNV-0" />
        <mxCell id="WIyWlLk6GJQsqaUBKTNV-1" parent="WIyWlLk6GJQsqaUBKTNV-0" />
        <mxCell id="MtcECtellT75DTe7f0AG-2" value="" style="edgeStyle=orthogonalEdgeStyle;rounded=1;orthogonalLoop=1;jettySize=auto;html=1;sketch=1;curveFitting=1;jiggle=2;" edge="1" parent="WIyWlLk6GJQsqaUBKTNV-1" source="MtcECtellT75DTe7f0AG-0" target="MtcECtellT75DTe7f0AG-1">
          <mxGeometry relative="1" as="geometry" />
        </mxCell>
        <mxCell id="MtcECtellT75DTe7f0AG-0" value="Start the game" style="rounded=1;whiteSpace=wrap;html=1;sketch=1;curveFitting=1;jiggle=2;" vertex="1" parent="WIyWlLk6GJQsqaUBKTNV-1">
          <mxGeometry x="437" y="20" width="120" height="60" as="geometry" />
        </mxCell>
        <mxCell id="MtcECtellT75DTe7f0AG-4" value="" style="edgeStyle=orthogonalEdgeStyle;rounded=1;orthogonalLoop=1;jettySize=auto;html=1;sketch=1;curveFitting=1;jiggle=2;" edge="1" parent="WIyWlLk6GJQsqaUBKTNV-1" source="MtcECtellT75DTe7f0AG-1" target="MtcECtellT75DTe7f0AG-3">
          <mxGeometry relative="1" as="geometry" />
        </mxCell>
        <mxCell id="MtcECtellT75DTe7f0AG-1" value="Set up the map, hide the star." style="rounded=1;whiteSpace=wrap;html=1;sketch=1;curveFitting=1;jiggle=2;" vertex="1" parent="WIyWlLk6GJQsqaUBKTNV-1">
          <mxGeometry x="437" y="110" width="120" height="60" as="geometry" />
        </mxCell>
        <mxCell id="MtcECtellT75DTe7f0AG-6" value="" style="edgeStyle=orthogonalEdgeStyle;rounded=1;orthogonalLoop=1;jettySize=auto;html=1;sketch=1;curveFitting=1;jiggle=2;" edge="1" parent="WIyWlLk6GJQsqaUBKTNV-1" source="MtcECtellT75DTe7f0AG-3" target="MtcECtellT75DTe7f0AG-5">
          <mxGeometry relative="1" as="geometry" />
        </mxCell>
        <mxCell id="MtcECtellT75DTe7f0AG-13" value="" style="edgeStyle=orthogonalEdgeStyle;rounded=1;orthogonalLoop=1;jettySize=auto;html=1;sketch=1;curveFitting=1;jiggle=2;" edge="1" parent="WIyWlLk6GJQsqaUBKTNV-1" source="MtcECtellT75DTe7f0AG-3" target="MtcECtellT75DTe7f0AG-5">
          <mxGeometry relative="1" as="geometry" />
        </mxCell>
        <mxCell id="MtcECtellT75DTe7f0AG-3" value="Ask the user for their coordinates or X to quit" style="rounded=1;whiteSpace=wrap;html=1;sketch=1;curveFitting=1;jiggle=2;" vertex="1" parent="WIyWlLk6GJQsqaUBKTNV-1">
          <mxGeometry x="437" y="200" width="120" height="60" as="geometry" />
        </mxCell>
        <mxCell id="MtcECtellT75DTe7f0AG-8" value="YES" style="edgeStyle=orthogonalEdgeStyle;rounded=1;orthogonalLoop=1;jettySize=auto;html=1;entryX=1;entryY=0.5;entryDx=0;entryDy=0;exitX=1;exitY=0.5;exitDx=0;exitDy=0;sketch=1;curveFitting=1;jiggle=2;" edge="1" parent="WIyWlLk6GJQsqaUBKTNV-1" source="MtcECtellT75DTe7f0AG-5" target="MtcECtellT75DTe7f0AG-11">
          <mxGeometry relative="1" as="geometry" />
        </mxCell>
        <mxCell id="MtcECtellT75DTe7f0AG-15" value="NO" style="edgeStyle=orthogonalEdgeStyle;rounded=1;orthogonalLoop=1;jettySize=auto;html=1;sketch=1;curveFitting=1;jiggle=2;" edge="1" parent="WIyWlLk6GJQsqaUBKTNV-1" source="MtcECtellT75DTe7f0AG-5" target="MtcECtellT75DTe7f0AG-14">
          <mxGeometry relative="1" as="geometry" />
        </mxCell>
        <mxCell id="MtcECtellT75DTe7f0AG-5" value="Has X been pressed?" style="rhombus;whiteSpace=wrap;html=1;rounded=1;sketch=1;curveFitting=1;jiggle=2;" vertex="1" parent="WIyWlLk6GJQsqaUBKTNV-1">
          <mxGeometry x="422" y="290" width="150" height="100" as="geometry" />
        </mxCell>
        <mxCell id="MtcECtellT75DTe7f0AG-10" value="YES" style="edgeStyle=orthogonalEdgeStyle;rounded=1;orthogonalLoop=1;jettySize=auto;html=1;entryX=0;entryY=0.5;entryDx=0;entryDy=0;sketch=1;curveFitting=1;jiggle=2;" edge="1" parent="WIyWlLk6GJQsqaUBKTNV-1" source="MtcECtellT75DTe7f0AG-7" target="MtcECtellT75DTe7f0AG-0">
          <mxGeometry relative="1" as="geometry">
            <mxPoint x="257" y="215" as="targetPoint" />
            <Array as="points">
              <mxPoint x="120" y="50" />
            </Array>
          </mxGeometry>
        </mxCell>
        <mxCell id="MtcECtellT75DTe7f0AG-12" value="NO" style="edgeStyle=orthogonalEdgeStyle;rounded=1;orthogonalLoop=1;jettySize=auto;html=1;sketch=1;curveFitting=1;jiggle=2;" edge="1" parent="WIyWlLk6GJQsqaUBKTNV-1" source="MtcECtellT75DTe7f0AG-7" target="MtcECtellT75DTe7f0AG-11">
          <mxGeometry relative="1" as="geometry">
            <Array as="points">
              <mxPoint x="120" y="610" />
            </Array>
          </mxGeometry>
        </mxCell>
        <mxCell id="MtcECtellT75DTe7f0AG-7" value="Does the&amp;nbsp;&lt;div&gt;user want to play&amp;nbsp;&lt;/div&gt;&lt;div&gt;again?&lt;/div&gt;" style="whiteSpace=wrap;html=1;rounded=1;shape=rhombus;perimeter=rhombusPerimeter;sketch=1;curveFitting=1;jiggle=2;" vertex="1" parent="WIyWlLk6GJQsqaUBKTNV-1">
          <mxGeometry x="50" y="455" width="140" height="110" as="geometry" />
        </mxCell>
        <mxCell id="MtcECtellT75DTe7f0AG-11" value="End the game" style="whiteSpace=wrap;html=1;rounded=1;sketch=1;curveFitting=1;jiggle=2;" vertex="1" parent="WIyWlLk6GJQsqaUBKTNV-1">
          <mxGeometry x="437" y="580" width="120" height="60" as="geometry" />
        </mxCell>
        <mxCell id="MtcECtellT75DTe7f0AG-23" value="NO" style="edgeStyle=orthogonalEdgeStyle;rounded=1;orthogonalLoop=1;jettySize=auto;html=1;sketch=1;curveFitting=1;jiggle=2;" edge="1" parent="WIyWlLk6GJQsqaUBKTNV-1" source="MtcECtellT75DTe7f0AG-14" target="MtcECtellT75DTe7f0AG-22">
          <mxGeometry relative="1" as="geometry" />
        </mxCell>
        <mxCell id="MtcECtellT75DTe7f0AG-26" value="YES" style="edgeStyle=orthogonalEdgeStyle;rounded=1;orthogonalLoop=1;jettySize=auto;html=1;sketch=1;curveFitting=1;jiggle=2;" edge="1" parent="WIyWlLk6GJQsqaUBKTNV-1" source="MtcECtellT75DTe7f0AG-14" target="MtcECtellT75DTe7f0AG-25">
          <mxGeometry relative="1" as="geometry" />
        </mxCell>
        <mxCell id="MtcECtellT75DTe7f0AG-14" value="Do the&amp;nbsp;&lt;div&gt;coordinates&amp;nbsp;&lt;div&gt;match the star&amp;nbsp;&lt;/div&gt;&lt;div&gt;location?&lt;/div&gt;&lt;/div&gt;" style="rhombus;rounded=1;sketch=1;curveFitting=1;jiggle=2;whiteSpace=wrap;html=1;" vertex="1" parent="WIyWlLk6GJQsqaUBKTNV-1">
          <mxGeometry x="422" y="460" width="150" height="100" as="geometry" />
        </mxCell>
        <mxCell id="MtcECtellT75DTe7f0AG-22" value="Display the new map with the wrong guess in place" style="whiteSpace=wrap;html=1;rounded=1;sketch=1;curveFitting=1;jiggle=2;" vertex="1" parent="WIyWlLk6GJQsqaUBKTNV-1">
          <mxGeometry x="667" y="480" width="120" height="60" as="geometry" />
        </mxCell>
        <mxCell id="MtcECtellT75DTe7f0AG-24" value="" style="endArrow=classic;html=1;rounded=1;entryX=1;entryY=0.5;entryDx=0;entryDy=0;exitX=0.5;exitY=0;exitDx=0;exitDy=0;sketch=1;curveFitting=1;jiggle=2;" edge="1" parent="WIyWlLk6GJQsqaUBKTNV-1" source="MtcECtellT75DTe7f0AG-22" target="MtcECtellT75DTe7f0AG-3">
          <mxGeometry width="50" height="50" relative="1" as="geometry">
            <mxPoint x="487" y="340" as="sourcePoint" />
            <mxPoint x="537" y="290" as="targetPoint" />
            <Array as="points">
              <mxPoint x="727" y="230" />
            </Array>
          </mxGeometry>
        </mxCell>
        <mxCell id="MtcECtellT75DTe7f0AG-25" value="Display the map with the star revealed" style="whiteSpace=wrap;html=1;rounded=1;sketch=1;curveFitting=1;jiggle=2;" vertex="1" parent="WIyWlLk6GJQsqaUBKTNV-1">
          <mxGeometry x="237" y="480" width="120" height="60" as="geometry" />
        </mxCell>
        <mxCell id="MtcECtellT75DTe7f0AG-29" value="" style="endArrow=classic;html=1;rounded=1;entryX=1;entryY=0.5;entryDx=0;entryDy=0;exitX=0;exitY=0.5;exitDx=0;exitDy=0;sketch=1;curveFitting=1;jiggle=2;" edge="1" parent="WIyWlLk6GJQsqaUBKTNV-1" source="MtcECtellT75DTe7f0AG-25" target="MtcECtellT75DTe7f0AG-7">
          <mxGeometry width="50" height="50" relative="1" as="geometry">
            <mxPoint x="390" y="340" as="sourcePoint" />
            <mxPoint x="440" y="290" as="targetPoint" />
          </mxGeometry>
        </mxCell>
      </root>
    </mxGraphModel>
  </diagram>
</mxfile>
